# xmcd
#
# Track frame offsets: 
#        150
#        16999
#        27750
#        42922
#        60550
#        72311
#        85679
#        99511
#        112168
#        124985
#        141948
#        154323
#        167481
#        185863
#        204755
#        219750
#        231161
#        244023
#        255018
#        273275
#        284203
#        295330
#        307379
#        319757
#        331931
#        346774
#        363307
#        375974
#
# Disc length: 5210 seconds
#
# Revision: 0
# Processed by: cddbd v1.5.2PL0 Copyright (c) Steve Scherf et al.
# Submitted via: ExactAudioCopyFreeDBPlugin 1.0
#
DISCID=9c14581c
DTITLE=Various Artist - Dim Lights, Thick Smoke and Hillbilly Music: Co
DTITLE=untry and Western Hit Parade 1969
DYEAR=2014
DGENRE=Country
TTITLE0=John Wesley Ryles I - Kay
TTITLE1=Buck Owens - Who's Gonna Mow Your Grass
TTITLE2=Bobby Bare - (Margie's At) The Lincoln Park Inn
TTITLE3=The Byrds - Drug Store Truck Drivin' Man
TTITLE4=Merle Haggard - Workin' Man Blues
TTITLE5=Loretta Lynn - Woman Of The World (Leave My World Alone)
TTITLE6=Charley Pride - All I Have To Offer You (Is Me)
TTITLE7=Glen Campbell - Galveston
TTITLE8=Jerry Lee Lewis - To Make Love Sweeter For You
TTITLE9=Johnny Cash - A Boy Named Sue
TTITLE10=Dottie West and Don Gibson - Rings Of Gold
TTITLE11=Jack Greene - Statue Of A Fool
TTITLE12=Roger Miller - Me And Bobbie McGee
TTITLE13=Flying Burrito Brothers - Sin City
TTITLE14=Tom T. Hall - Homecoming
TTITLE15=George Jones - I'll Share My World With You
TTITLE16=Bobby Bare - God Bless America Again
TTITLE17=Faron Young - Wine Me Up
TTITLE18=Johnny Bush - You Gave Me A Mountain
TTITLE19=Porter Wagoner and Dolly Parton - Just Someone I Used To Know
TTITLE20=Glen Campbell - Try A Little Kindness
TTITLE21=Jerry Lee Lewis - She Even Woke Me Up To Say Goodbye
TTITLE22=Merle Haggard - Okie From Muskogee
TTITLE23=Conway Twitty - To See My Angel Cry
TTITLE24=Willie Nelson - Bloody Merry Morning
TTITLE25=Charlie Rich - Life's Little Ups and Downs
TTITLE26=Kenny Rogers and The First Edition - Ruben James
TTITLE27=Billy Lee Riley - Kay
EXTD=
EXTT0=
EXTT1=
EXTT2=
EXTT3=
EXTT4=
EXTT5=
EXTT6=
EXTT7=
EXTT8=
EXTT9=
EXTT10=
EXTT11=
EXTT12=
EXTT13=
EXTT14=
EXTT15=
EXTT16=
EXTT17=
EXTT18=
EXTT19=
EXTT20=
EXTT21=
EXTT22=
EXTT23=
EXTT24=
EXTT25=
EXTT26=
EXTT27=
PLAYORDER=
